<?xml version="1.0" encoding="utf-8"?>
<!-- Generator: Adobe Illustrator 22.1.0, SVG Export Plug-In . SVG Version: 6.00 Build 0)  -->
<svg version="1.1" id="Layer_1" xmlns="http://www.w3.org/2000/svg" xmlns:xlink="http://www.w3.org/1999/xlink" x="0px" y="0px"
	 viewBox="0 0 136 48" style="enable-background:new 0 0 136 48;" xml:space="preserve">
<metadata><?xpacket begin="﻿" id="W5M0MpCehiHzreSzNTczkc9d"?>
<x:xmpmeta xmlns:x="adobe:ns:meta/" x:xmptk="Adobe XMP Core 5.6-c143 79.161356, 2017/09/07-01:11:22        ">
   <rdf:RDF xmlns:rdf="http://www.w3.org/1999/02/22-rdf-syntax-ns#">
      <rdf:Description rdf:about=""/>
   </rdf:RDF>
</x:xmpmeta>
                                                                                                    
                                                                                                    
                                                                                                    
                                                                                                    
                                                                                                    
                                                                                                    
                                                                                                    
                                                                                                    
                                                                                                    
                                                                                                    
                                                                                                    
                                                                                                    
                                                                                                    
                                                                                                    
                                                                                                    
                                                                                                    
                                                                                                    
                                                                                                    
                                                                                                    
                                                                                                    
                           
<?xpacket end="w"?></metadata>
<style type="text/css">
	.st0{fill:#3555A6;}
</style>
<path class="st0" d="M128.9,34.8c2.5,0,5.1-1.3,5.1-4.2c0-3.3-3.2-3.7-5.6-4.4c-1-0.3-2.2-0.7-2.2-1.8c0-1,0.9-1.8,2.8-1.8
	c0.8,0,1.8,0.2,2.4,0.6c0,0,0.1,0.1,0.1,0.1c0.9,0.8,2-0.5,1.3-1.3c-0.9-0.9-2.8-1.2-3.8-1.2c-2.2,0-4.6,1-4.6,3.6
	c0,3.1,3.3,3.4,5.6,4.1c1.1,0.4,2.2,0.8,2.2,2.1c0,1.4-1.2,2.4-3.3,2.4c-1.3,0-2.8-0.4-3.5-1c-1-0.7-2,0.8-1.1,1.5
	C125.5,34.4,127.4,34.8,128.9,34.8z"/>
<path class="st0" d="M114.2,34.5h7.9c0.7,0,1-0.7,0.8-1.2c-0.1-0.3-0.4-0.6-0.8-0.6h-6.9v-4.4h5c1.2,0,1.2-1.8,0-1.8h-5v-3.5h6.9
	c0.2,0,0.4-0.1,0.5-0.2c0.6-0.5,0.4-1.6-0.5-1.6h-7.9c-0.5,0-0.9,0.4-0.9,0.9v11.6C113.3,34.1,113.8,34.5,114.2,34.5z"/>
<path class="st0" d="M111.1,33.6V22c0-1.2-1.8-1.2-1.8,0v11.6C109.3,34.8,111.1,34.8,111.1,33.6z"/>
<path class="st0" d="M99,22.9h3v10.7c0,1.2,1.8,1.2,1.8,0V22.9h3c1.2,0,1.2-1.8,0-1.8H99C97.8,21.1,97.8,22.9,99,22.9z"/>
<path class="st0" d="M97,33.6V22c0-1.2-1.8-1.2-1.8,0v11.6C95.2,34.8,97,34.8,97,33.6z"/>
<path class="st0" d="M88.5,34.8c2.5,0,5.1-1.3,5.1-4.2c0-3.3-3.2-3.7-5.6-4.4c-1-0.3-2.2-0.7-2.2-1.8c0-1,0.9-1.8,2.8-1.8
	c0.8,0,1.8,0.2,2.4,0.6c0,0,0.1,0.1,0.1,0.1c0.9,0.8,2-0.5,1.3-1.3c-0.9-0.9-2.8-1.2-3.8-1.2c-2.2,0-4.6,1-4.6,3.6
	c0,3.1,3.3,3.4,5.6,4.1c1.1,0.4,2.2,0.8,2.2,2.1c0,1.4-1.2,2.4-3.3,2.4c-1.3,0-2.8-0.4-3.5-1c-1-0.7-2,0.8-1.1,1.5
	C85.1,34.4,86.9,34.8,88.5,34.8z"/>
<path class="st0" d="M61.2,22v11.6c0,0.5,0.4,0.9,0.9,0.9H70c0.6,0,0.9-0.5,0.9-0.9c0-0.5-0.3-0.9-0.9-0.9h-6.9v-4.4h5
	c1.2,0,1.2-1.8,0-1.8h-5v-3.5H70c0.6,0,0.9-0.5,0.9-0.9c0-0.5-0.3-0.9-0.9-0.9h-7.8C61.7,21.1,61.2,21.5,61.2,22z"/>
<path class="st0" d="M58.6,16.7V8l6.2,9.1c0.5,0.8,1.7,0.4,1.7-0.5V5.1c0-1.2-1.8-1.2-1.8,0v8.6l-6.2-9.1c-0.5-0.7-1.7-0.4-1.7,0.5
	v11.6C56.8,17.9,58.6,17.9,58.6,16.7z"/>
<path class="st0" d="M63.5,38l-2.2,5.2c-0.2,0.5,0.5,0.8,0.8,0.3l0.5-1.1h2.7l0.5,1.1c0.1,0.2,0.4,0.3,0.5,0.2
	c0.2-0.1,0.3-0.3,0.2-0.5L64.2,38C64.1,37.6,63.6,37.8,63.5,38z M62.9,41.6l1-2.4l1,2.4H62.9z"/>
<path class="st0" d="M60.3,43.4v-5.2c0-0.5-0.8-0.5-0.8,0v5.2C59.5,43.9,60.3,43.9,60.3,43.4z"/>
<path class="st0" d="M58.3,21.7l-3.1,9l-3.1-9c-0.4-1.2-2.1-0.6-1.7,0.6l3.9,11.6c0.3,0.9,1.4,0.9,1.7,0L60,22.3
	C60.3,21.4,58.8,20.3,58.3,21.7z"/>
<path class="st0" d="M55,38.2v5.2c0,0.2,0.2,0.4,0.4,0.4h2.7c0.5,0,0.5-0.8,0-0.8h-2.3v-4.8C55.8,37.7,55,37.7,55,38.2z"/>
<path class="st0" d="M46.6,17.6h7.9c0.6,0,0.9-0.5,0.9-0.9c0-0.5-0.3-0.9-0.9-0.9h-6.9v-4.4h5c1.2,0,1.2-1.8,0-1.8h-5V6h6.9
	c0.6,0,0.9-0.5,0.9-0.9c0-0.5-0.3-0.9-0.9-0.9h-7.9c-0.5,0-0.9,0.4-0.9,0.9v11.6C45.7,17.1,46.1,17.6,46.6,17.6z"/>
<path class="st0" d="M51.3,38l-2.2,5.2c-0.2,0.5,0.6,0.8,0.8,0.3l0.5-1.1H53l0.5,1.1c0.1,0.2,0.4,0.3,0.5,0.2
	c0.2-0.1,0.3-0.3,0.2-0.5L52.1,38C51.9,37.6,51.4,37.8,51.3,38z M50.7,41.6l1-2.4l1,2.4H50.7z"/>
<path class="st0" d="M48.6,22c0-1.2-1.8-1.2-1.8,0v11.6c0,1.2,1.8,1.2,1.8,0V22z"/>
<path class="st0" d="M42.7,22v8.6l-6.2-9.1c-0.5-0.7-1.7-0.4-1.7,0.5v11.6c0,1.2,1.8,1.2,1.8,0V25l6.2,9.1c0.5,0.7,1.7,0.4,1.7-0.5
	V22C44.5,20.8,42.7,20.8,42.7,22z"/>
<path class="st0" d="M36.5,16.7v-4.5h3.9c2.2,0,4-1.8,4-4c0-2.2-1.8-4-4-4h-4.8c-0.5,0-0.9,0.4-0.9,0.9v11.6
	C34.7,17.9,36.5,17.9,36.5,16.7z M36.5,6h3.9c1.3,0,2.1,1,2.1,2.1v0c-0.1,1.1-0.9,2.1-2.2,2.1h-3.9V6z"/>
<path class="st0" d="M41.5,43.4v-4.8h1.4c0.5,0,0.5-0.8,0-0.8h-3.6c-0.5,0-0.5,0.8,0,0.8h1.4v4.8C40.7,43.9,41.5,43.9,41.5,43.4z"/>
<path class="st0" d="M36.2,44c1.1,0,2.3-0.6,2.3-1.9c0-1.5-1.4-1.6-2.5-2c-0.5-0.1-1-0.3-1-0.8c0-0.4,0.4-0.8,1.3-0.8
	c0.4,0,0.8,0.1,1.1,0.3c0,0,0,0,0,0c0.4,0.4,0.9-0.2,0.6-0.6c-0.4-0.4-1.2-0.6-1.7-0.6c-1,0-2.1,0.5-2.1,1.6c0,1.4,1.5,1.5,2.5,1.8
	c0.5,0.2,1,0.4,1,0.9c0,0.6-0.5,1.1-1.5,1.1c-0.6,0-1.2-0.2-1.6-0.4c-0.4-0.3-0.9,0.3-0.5,0.7C34.7,43.8,35.5,44,36.2,44z"/>
<path class="st0" d="M32.4,38.2v3.6c0,0.8-0.6,1.4-1.4,1.4c-0.8,0-1.4-0.6-1.4-1.4v-3.6c0-0.5-0.8-0.5-0.8,0v3.6
	c0,1.2,1,2.2,2.2,2.2c1.2,0,2.2-1,2.2-2.2v-3.6C33.2,37.7,32.4,37.7,32.4,38.2z"/>
<path class="st0" d="M28.1,34.8c2.7,0,4.8-2.2,4.8-4.8v-8c0-1.2-1.8-1.2-1.8,0v8c0,1.7-1.3,3-3,3c-1.7,0-3-1.3-3-3v-8
	c0-1.2-1.8-1.2-1.8,0v8C23.3,32.7,25.4,34.8,28.1,34.8z"/>
<path class="st0" d="M28.1,17.7c2.7,0,4.8-1.7,4.8-4.4V8.4C32.9,6,31.1,4,28.1,4c-3,0-4.8,2-4.8,4.4v4.9
	C23.3,16,25.5,17.7,28.1,17.7z M25.1,8.4c0.1-1.5,1.1-2.6,3-2.6c1.7,0,2.9,0.9,3,2.6c0.1,1.7,0.1,3.4,0,4.9c-0.1,1.5-1.1,2.6-3,2.6
	c-1.7,0-2.9-0.9-3-2.6C25,11.6,25.1,9.9,25.1,8.4z"/>
<path class="st0" d="M23.9,43.6l0.5-1.1h2.7l0.5,1.1c0.1,0.2,0.4,0.3,0.5,0.2c0.2-0.1,0.3-0.3,0.2-0.5L26.1,38
	c-0.2-0.4-0.6-0.3-0.8,0l-2.2,5.2C23,43.7,23.7,44,23.9,43.6z M25.7,39.3l1,2.4h-2L25.7,39.3z"/>
<path class="st0" d="M9.8,38.8c0,0.4-0.3,0.6-0.7,0.6c-0.4,0-0.6-0.3-0.6-0.6V24.7H2v14.1c0,4,3.2,7.2,7.2,7.2c4,0,7.2-3.2,7.2-7.2
	V24.7H9.8V38.8z"/>
<path class="st0" d="M9.2,2C5.2,2,2,5.2,2,9.2v14.1h6.5V9.2c0-0.4,0.3-0.6,0.6-0.6c0.4,0,0.6,0.3,0.6,0.6v14.1h6.5V9.2
	C16.4,5.2,13.2,2,9.2,2z"/>
<path class="st0" d="M74.3,33.6v-4.5h2.6l3.7,5.1c0.7,1,2.2-0.1,1.4-1.1L79.1,29c1.8-0.4,3.1-2,3.1-3.9c0-2.2-1.8-4-4-4h-4.8
	c-0.5,0-0.9,0.4-0.9,0.9v11.6C72.5,34.8,74.3,34.8,74.3,33.6z M74.3,22.9h3.9c1.3,0,2.1,1,2.1,2.1v0c-0.1,1.2-0.9,2.1-2.2,2.1h-3.9
	V22.9z"/>
<path class="st0" d="M48.4,39.6c0-1-0.8-1.8-1.8-1.8h-2.2c-0.2,0-0.4,0.2-0.4,0.4v5.2c0,0.5,0.8,0.5,0.8,0v-2H46l1.7,2.3
	c0.3,0.4,1,0,0.7-0.5L47,41.3C47.8,41.1,48.4,40.4,48.4,39.6z M47.5,39.6c0,0.5-0.4,1-1,1h-1.8v-1.9h1.8
	C47.1,38.6,47.5,39.1,47.5,39.6C47.5,39.6,47.5,39.6,47.5,39.6z"/>
</svg>
